<svg xmlns="http://www.w3.org/2000/svg" viewBox="0 0 600 380" fill="none">
  <rect width="600" height="380" rx="12" fill="#f8fafc"/>
  <rect width="600" height="48" rx="12 12 0 0" fill="#334155"/>
  <rect y="34" width="600" height="14" fill="#334155"/>
  <circle cx="20" cy="24" r="6" fill="#ef4444"/><circle cx="40" cy="24" r="6" fill="#f59e0b"/><circle cx="60" cy="24" r="6" fill="#22c55e"/>
  <rect x="180" y="14" width="240" height="20" rx="10" fill="#475569"/>
  <text x="300" y="28" font-family="Roboto,sans-serif" font-size="10" fill="#94a3b8" text-anchor="middle">modaartesanal.es</text>
  <!-- Nav -->
  <rect y="48" width="600" height="50" fill="white"/>
  <text x="24" y="78" font-family="Roboto,sans-serif" font-size="13" font-weight="900" fill="#1e293b">✂️ Moda Artesanal</text>
  <rect x="300" y="63" width="40" height="10" rx="3" fill="#e2e8f0"/>
  <rect x="354" y="63" width="50" height="10" rx="3" fill="#e2e8f0"/>
  <rect x="418" y="63" width="45" height="10" rx="3" fill="#e2e8f0"/>
  <rect x="530" y="61" width="24" height="24" rx="5" fill="#f1f5f9"/>
  <text x="542" y="78" font-family="Roboto,sans-serif" font-size="14" text-anchor="middle">🛒</text>
  <rect x="560" y="63" width="16" height="12" rx="6" fill="#4f46e5"/>
  <text x="568" y="73" font-family="Roboto,sans-serif" font-size="8" font-weight="700" fill="white" text-anchor="middle">3</text>
  <!-- Hero shop -->
  <rect y="98" width="600" height="80" fill="url(#tl1h)"/>
  <text x="300" y="135" font-family="Roboto,sans-serif" font-size="18" font-weight="900" fill="white" text-anchor="middle">Moda Artesanal · Nueva colección</text>
  <text x="300" y="156" font-family="Roboto,sans-serif" font-size="10" fill="rgba(255,255,255,0.8)" text-anchor="middle">Ropa hecha a mano · Envío gratis +50€</text>
  <!-- Products grid -->
  <rect x="20" y="195" width="130" height="140" rx="10" fill="white" stroke="#e2e8f0" stroke-width="1"/>
  <rect x="20" y="195" width="130" height="80" rx="10 10 0 0" fill="#e0e7ff"/>
  <text x="85" y="242" font-family="Roboto,sans-serif" font-size="32" text-anchor="middle">👗</text>
  <rect x="30" y="284" width="70" height="8" rx="3" fill="#1e293b"/>
  <rect x="30" y="298" width="50" height="8" rx="3" fill="#4f46e5"/>
  <rect x="90" y="296" width="44" height="22" rx="11" fill="#4f46e5"/>
  <text x="112" y="311" font-family="Roboto,sans-serif" font-size="9" font-weight="700" fill="white" text-anchor="middle">Añadir</text>

  <rect x="165" y="195" width="130" height="140" rx="10" fill="white" stroke="#e2e8f0" stroke-width="1"/>
  <rect x="165" y="195" width="130" height="80" rx="10 10 0 0" fill="#fce7f3"/>
  <text x="230" y="242" font-family="Roboto,sans-serif" font-size="32" text-anchor="middle">👜</text>
  <rect x="175" y="284" width="70" height="8" rx="3" fill="#1e293b"/>
  <rect x="175" y="298" width="50" height="8" rx="3" fill="#4f46e5"/>
  <rect x="235" y="296" width="44" height="22" rx="11" fill="#4f46e5"/>
  <text x="257" y="311" font-family="Roboto,sans-serif" font-size="9" font-weight="700" fill="white" text-anchor="middle">Añadir</text>

  <rect x="310" y="195" width="130" height="140" rx="10" fill="white" stroke="#e2e8f0" stroke-width="1"/>
  <rect x="310" y="195" width="130" height="80" rx="10 10 0 0" fill="#fef3c7"/>
  <text x="375" y="242" font-family="Roboto,sans-serif" font-size="32" text-anchor="middle">🧣</text>
  <rect x="320" y="284" width="70" height="8" rx="3" fill="#1e293b"/>
  <rect x="320" y="298" width="50" height="8" rx="3" fill="#4f46e5"/>
  <rect x="380" y="296" width="44" height="22" rx="11" fill="#4f46e5"/>
  <text x="402" y="311" font-family="Roboto,sans-serif" font-size="9" font-weight="700" fill="white" text-anchor="middle">Añadir</text>

  <rect x="455" y="195" width="130" height="140" rx="10" fill="white" stroke="#e2e8f0" stroke-width="1"/>
  <rect x="455" y="195" width="130" height="80" rx="10 10 0 0" fill="#dcfce7"/>
  <text x="520" y="242" font-family="Roboto,sans-serif" font-size="32" text-anchor="middle">🎒</text>
  <rect x="465" y="284" width="70" height="8" rx="3" fill="#1e293b"/>
  <rect x="465" y="298" width="50" height="8" rx="3" fill="#4f46e5"/>
  <rect x="525" y="296" width="44" height="22" rx="11" fill="#4f46e5"/>
  <text x="547" y="311" font-family="Roboto,sans-serif" font-size="9" font-weight="700" fill="white" text-anchor="middle">Añadir</text>

  <rect x="0" y="355" width="600" height="25" fill="#0f172a"/>
  <text x="300" y="371" font-family="Roboto,sans-serif" font-size="10" fill="rgba(255,255,255,0.5)" text-anchor="middle">Tienda Online Lite · Moda · Uctured</text>
  <defs>
    <linearGradient id="tl1h" x1="0" y1="0" x2="600" y2="80" gradientUnits="userSpaceOnUse">
      <stop stop-color="#9333ea"/><stop offset="1" stop-color="#7e22ce"/>
    </linearGradient>
  </defs>
</svg>
