<svg xmlns="http://www.w3.org/2000/svg" viewBox="0 0 600 380" fill="none">
  <rect width="600" height="380" rx="12" fill="#f8fafc"/>
  <rect width="600" height="48" rx="12 12 0 0" fill="#334155"/>
  <rect y="34" width="600" height="14" fill="#334155"/>
  <circle cx="20" cy="24" r="6" fill="#ef4444"/><circle cx="40" cy="24" r="6" fill="#f59e0b"/><circle cx="60" cy="24" r="6" fill="#22c55e"/>
  <rect x="180" y="14" width="240" height="20" rx="10" fill="#475569"/>
  <text x="300" y="28" font-family="Roboto,sans-serif" font-size="10" fill="#94a3b8" text-anchor="middle">consultoriaacp.com</text>
  <rect y="48" width="600" height="50" fill="white" stroke="#e2e8f0" stroke-width="1"/>
  <text x="24" y="78" font-family="Roboto,sans-serif" font-size="13" font-weight="900" fill="#4f46e5">AC Business</text>
  <rect x="200" y="63" width="40" height="10" rx="3" fill="#e2e8f0"/>
  <rect x="254" y="63" width="50" height="10" rx="3" fill="#e2e8f0"/>
  <rect x="318" y="63" width="45" height="10" rx="3" fill="#e2e8f0"/>
  <rect x="376" y="63" width="40" height="10" rx="3" fill="#e2e8f0"/>
  <rect x="500" y="57" width="80" height="22" rx="11" fill="url(#pp1g)"/>
  <text x="540" y="72" font-family="Roboto,sans-serif" font-size="9" font-weight="700" fill="white" text-anchor="middle">Consulta gratis</text>
  <!-- Hero split -->
  <rect y="98" width="300" height="180" fill="url(#pp1h)"/>
  <text x="150" y="160" font-family="Roboto,sans-serif" font-size="16" font-weight="900" fill="white" text-anchor="middle">Consultoría</text>
  <text x="150" y="178" font-family="Roboto,sans-serif" font-size="16" font-weight="900" fill="white" text-anchor="middle">Empresarial Pro</text>
  <text x="150" y="200" font-family="Roboto,sans-serif" font-size="10" fill="rgba(255,255,255,0.8)" text-anchor="middle">Transformamos tu empresa</text>
  <rect x="80" y="218" width="140" height="28" rx="14" fill="white"/>
  <text x="150" y="236" font-family="Roboto,sans-serif" font-size="10" font-weight="700" fill="#4f46e5" text-anchor="middle">Hablar con un experto</text>
  <!-- Right side stats -->
  <rect x="300" y="98" width="300" height="180" fill="#f8fafc"/>
  <rect x="314" y="112" width="130" height="70" rx="10" fill="white" stroke="#e2e8f0" stroke-width="1"/>
  <text x="379" y="142" font-family="Roboto,sans-serif" font-size="22" font-weight="900" fill="#4f46e5" text-anchor="middle">+200</text>
  <text x="379" y="158" font-family="Roboto,sans-serif" font-size="9" fill="#64748b" text-anchor="middle">empresas asesoradas</text>
  <rect x="456" y="112" width="130" height="70" rx="10" fill="white" stroke="#e2e8f0" stroke-width="1"/>
  <text x="521" y="142" font-family="Roboto,sans-serif" font-size="22" font-weight="900" fill="#4f46e5" text-anchor="middle">98%</text>
  <text x="521" y="158" font-family="Roboto,sans-serif" font-size="9" fill="#64748b" text-anchor="middle">satisfacción</text>
  <rect x="314" y="196" width="272" height="70" rx="10" fill="white" stroke="#e2e8f0" stroke-width="1"/>
  <rect x="328" y="212" width="80" height="8" rx="4" fill="#4f46e5"/>
  <rect x="328" y="226" width="240" height="7" rx="3" fill="#e2e8f0"/>
  <rect x="328" y="239" width="200" height="7" rx="3" fill="#e2e8f0"/>
  <!-- Blog section -->
  <rect y="278" width="600" height="77" fill="white"/>
  <text x="24" y="300" font-family="Roboto,sans-serif" font-size="11" font-weight="700" fill="#1e293b">Blog de estrategia empresarial</text>
  <rect x="24" y="308" width="180" height="38" rx="8" fill="#f8fafc" stroke="#e2e8f0" stroke-width="1"/>
  <rect x="36" y="316" width="100" height="7" rx="3" fill="#1e293b"/>
  <rect x="36" y="328" width="140" height="6" rx="3" fill="#e2e8f0"/>
  <rect x="212" y="308" width="180" height="38" rx="8" fill="#f8fafc" stroke="#e2e8f0" stroke-width="1"/>
  <rect x="224" y="316" width="100" height="7" rx="3" fill="#1e293b"/>
  <rect x="224" y="328" width="140" height="6" rx="3" fill="#e2e8f0"/>
  <rect x="400" y="308" width="180" height="38" rx="8" fill="#f8fafc" stroke="#e2e8f0" stroke-width="1"/>
  <rect x="412" y="316" width="100" height="7" rx="3" fill="#1e293b"/>
  <rect x="412" y="328" width="140" height="6" rx="3" fill="#e2e8f0"/>
  <rect x="0" y="355" width="600" height="25" fill="#0f172a"/>
  <text x="300" y="371" font-family="Roboto,sans-serif" font-size="10" fill="rgba(255,255,255,0.5)" text-anchor="middle">Diseño Web Pro · Consultoría · Uctured</text>
  <defs>
    <linearGradient id="pp1h" x1="0" y1="0" x2="300" y2="180" gradientUnits="userSpaceOnUse">
      <stop stop-color="#4f46e5"/><stop offset="1" stop-color="#4338ca"/>
    </linearGradient>
    <linearGradient id="pp1g" x1="0" y1="0" x2="80" y2="0" gradientUnits="userSpaceOnUse">
      <stop stop-color="#4f46e5"/><stop offset="1" stop-color="#4338ca"/>
    </linearGradient>
  </defs>
</svg>
