<svg xmlns="http://www.w3.org/2000/svg" viewBox="0 0 600 380" fill="none">
  <rect width="600" height="380" rx="12" fill="url(#llbg)"/>
  <rect width="600" height="48" rx="12 12 0 0" fill="#334155"/>
  <rect y="34" width="600" height="14" fill="#334155"/>
  <circle cx="20" cy="24" r="6" fill="#ef4444"/><circle cx="40" cy="24" r="6" fill="#f59e0b"/><circle cx="60" cy="24" r="6" fill="#22c55e"/>
  <rect x="180" y="14" width="240" height="20" rx="10" fill="#475569"/>
  <text x="300" y="28" font-family="Roboto,sans-serif" font-size="10" fill="#94a3b8" text-anchor="middle">oferta.tunegocio.es</text>
  <!-- Landing content -->
  <text x="300" y="105" font-family="Roboto,sans-serif" font-size="11" font-weight="700" fill="#4f46e5" text-anchor="middle">⚡ OFERTA POR TIEMPO LIMITADO</text>
  <text x="300" y="132" font-family="Roboto,sans-serif" font-size="22" font-weight="900" fill="#1e293b" text-anchor="middle">Consigue más clientes</text>
  <text x="300" y="154" font-family="Roboto,sans-serif" font-size="22" font-weight="900" fill="#4f46e5" text-anchor="middle">en 30 días garantizado</text>
  <text x="300" y="178" font-family="Roboto,sans-serif" font-size="11" fill="#64748b" text-anchor="middle">El sistema probado que ya usan +500 negocios en España</text>
  <!-- Bullets -->
  <text x="170" y="205" font-family="Roboto,sans-serif" font-size="11" fill="#1e293b">✅  Resultados en 30 días o te devolvemos el dinero</text>
  <text x="170" y="222" font-family="Roboto,sans-serif" font-size="11" fill="#1e293b">✅  Sin conocimientos técnicos necesarios</text>
  <text x="170" y="239" font-family="Roboto,sans-serif" font-size="11" fill="#1e293b">✅  Soporte personalizado incluido</text>
  <!-- CTA big -->
  <rect x="150" y="255" width="300" height="48" rx="24" fill="url(#llcta)"/>
  <text x="300" y="284" font-family="Roboto,sans-serif" font-size="14" font-weight="900" fill="white" text-anchor="middle">🚀 Quiero empezar ahora</text>
  <!-- Social proof -->
  <text x="300" y="322" font-family="Roboto,sans-serif" font-size="10" fill="#94a3b8" text-anchor="middle">⭐⭐⭐⭐⭐  Más de 500 clientes satisfechos</text>
  <!-- Urgency -->
  <rect x="160" y="334" width="280" height="10" rx="5" fill="#fee2e2"/>
  <rect x="160" y="334" width="190" height="10" rx="5" fill="#ef4444"/>
  <text x="300" y="358" font-family="Roboto,sans-serif" font-size="9" fill="#94a3b8" text-anchor="middle">Quedan 7 plazas · Oferta válida hasta el 30 de enero</text>
  <rect x="0" y="365" width="600" height="15" fill="#0f172a"/>
  <text x="300" y="375" font-family="Roboto,sans-serif" font-size="8" fill="rgba(255,255,255,0.4)" text-anchor="middle">Landing Page Lite · Uctured</text>
  <defs>
    <linearGradient id="llbg" x1="0" y1="0" x2="600" y2="380" gradientUnits="userSpaceOnUse">
      <stop stop-color="#f8fafc"/><stop offset="1" stop-color="#e0e7ff"/>
    </linearGradient>
    <linearGradient id="llcta" x1="150" y1="0" x2="450" y2="0" gradientUnits="userSpaceOnUse">
      <stop stop-color="#4f46e5"/><stop offset="1" stop-color="#4338ca"/>
    </linearGradient>
  </defs>
</svg>
