<svg xmlns="http://www.w3.org/2000/svg" viewBox="0 0 600 380" fill="none">
  <rect width="600" height="380" rx="12" fill="#f8fafc"/>
  <rect width="600" height="48" rx="12 12 0 0" fill="#334155"/>
  <rect y="34" width="600" height="14" fill="#334155"/>
  <circle cx="20" cy="24" r="6" fill="#ef4444"/><circle cx="40" cy="24" r="6" fill="#f59e0b"/><circle cx="60" cy="24" r="6" fill="#22c55e"/>
  <rect x="180" y="14" width="240" height="20" rx="10" fill="#475569"/>
  <text x="300" y="28" font-family="Roboto,sans-serif" font-size="10" fill="#94a3b8" text-anchor="middle">restauranteelpatio.es</text>
  <rect y="48" width="600" height="50" fill="#14532d"/>
  <text x="80" y="78" font-family="Roboto,sans-serif" font-size="14" font-weight="900" fill="white">🍕 El Patio Verde</text>
  <rect x="370" y="63" width="40" height="10" rx="3" fill="rgba(255,255,255,0.3)"/>
  <rect x="424" y="63" width="50" height="10" rx="3" fill="rgba(255,255,255,0.3)"/>
  <rect x="500" y="57" width="80" height="22" rx="11" fill="#16a34a"/>
  <text x="540" y="72" font-family="Roboto,sans-serif" font-size="9" font-weight="700" fill="white" text-anchor="middle">Reservar mesa</text>
  <rect y="98" width="600" height="140" fill="url(#p2h)"/>
  <text x="300" y="148" font-family="Roboto,sans-serif" font-size="20" font-weight="900" fill="white" text-anchor="middle">Restaurante El Patio Verde</text>
  <text x="300" y="170" font-family="Roboto,sans-serif" font-size="11" fill="rgba(255,255,255,0.85)" text-anchor="middle">Cocina mediterránea de autor en el corazón de la ciudad</text>
  <rect x="215" y="188" width="170" height="32" rx="16" fill="white"/>
  <text x="300" y="209" font-family="Roboto,sans-serif" font-size="11" font-weight="700" fill="#16a34a" text-anchor="middle">Ver carta y reservar</text>
  <rect x="20" y="258" width="170" height="90" rx="10" fill="white" stroke="#e2e8f0" stroke-width="1"/>
  <text x="105" y="282" font-family="Roboto,sans-serif" font-size="22" text-anchor="middle">🥗</text>
  <rect x="34" y="298" width="100" height="9" rx="4" fill="#14532d"/>
  <rect x="34" y="313" width="130" height="7" rx="3" fill="#e2e8f0"/>
  <rect x="215" y="258" width="170" height="90" rx="10" fill="white" stroke="#e2e8f0" stroke-width="1"/>
  <text x="300" y="282" font-family="Roboto,sans-serif" font-size="22" text-anchor="middle">🍷</text>
  <rect x="229" y="298" width="100" height="9" rx="4" fill="#14532d"/>
  <rect x="229" y="313" width="130" height="7" rx="3" fill="#e2e8f0"/>
  <rect x="410" y="258" width="170" height="90" rx="10" fill="white" stroke="#e2e8f0" stroke-width="1"/>
  <text x="495" y="282" font-family="Roboto,sans-serif" font-size="22" text-anchor="middle">📍</text>
  <rect x="424" y="298" width="100" height="9" rx="4" fill="#14532d"/>
  <rect x="424" y="313" width="130" height="7" rx="3" fill="#e2e8f0"/>
  <rect x="0" y="355" width="600" height="25" fill="#0f172a"/>
  <text x="300" y="371" font-family="Roboto,sans-serif" font-size="10" fill="rgba(255,255,255,0.5)" text-anchor="middle">Diseño Web Lite · Restaurante · Uctured</text>
  <defs>
    <linearGradient id="p2h" x1="0" y1="0" x2="600" y2="140" gradientUnits="userSpaceOnUse">
      <stop stop-color="#15803d"/><stop offset="1" stop-color="#14532d"/>
    </linearGradient>
  </defs>
</svg>
