<svg xmlns="http://www.w3.org/2000/svg" viewBox="0 0 600 380" fill="none">
  <rect width="600" height="380" rx="12" fill="#f8fafc"/>
  <rect width="600" height="48" rx="12 12 0 0" fill="#334155"/>
  <rect y="34" width="600" height="14" fill="#334155"/>
  <circle cx="20" cy="24" r="6" fill="#ef4444"/><circle cx="40" cy="24" r="6" fill="#f59e0b"/><circle cx="60" cy="24" r="6" fill="#22c55e"/>
  <rect x="180" y="14" width="240" height="20" rx="10" fill="#475569"/>
  <text x="300" y="28" font-family="Roboto,sans-serif" font-size="10" fill="#94a3b8" text-anchor="middle">clinicadental.es</text>
  <!-- Nav -->
  <rect y="48" width="600" height="50" fill="white"/>
  <rect x="20" y="61" width="80" height="22" rx="5" fill="#4f46e5"/>
  <text x="60" y="76" font-family="Roboto,sans-serif" font-size="10" font-weight="700" fill="white" text-anchor="middle">🦷 Clínica</text>
  <rect x="200" y="64" width="40" height="10" rx="3" fill="#e2e8f0"/>
  <rect x="254" y="64" width="50" height="10" rx="3" fill="#e2e8f0"/>
  <rect x="318" y="64" width="45" height="10" rx="3" fill="#e2e8f0"/>
  <rect x="520" y="58" width="60" height="22" rx="11" fill="#4f46e5"/>
  <text x="550" y="73" font-family="Roboto,sans-serif" font-size="9" font-weight="700" fill="white" text-anchor="middle">Cita previa</text>
  <!-- Hero -->
  <rect y="98" width="600" height="140" fill="url(#p1h)"/>
  <text x="300" y="148" font-family="Roboto,sans-serif" font-size="20" font-weight="900" fill="white" text-anchor="middle">Clínica Dental Sonrisa</text>
  <text x="300" y="170" font-family="Roboto,sans-serif" font-size="11" fill="rgba(255,255,255,0.8)" text-anchor="middle">Tu salud bucodental, nuestra prioridad</text>
  <rect x="225" y="188" width="150" height="32" rx="16" fill="white"/>
  <text x="300" y="209" font-family="Roboto,sans-serif" font-size="11" font-weight="700" fill="#4f46e5" text-anchor="middle">Pedir cita online</text>
  <!-- Cards -->
  <rect x="20" y="258" width="170" height="90" rx="10" fill="white" stroke="#e2e8f0" stroke-width="1"/>
  <text x="105" y="285" font-family="Roboto,sans-serif" font-size="20" text-anchor="middle">😁</text>
  <rect x="34" y="298" width="100" height="9" rx="4" fill="#1e293b"/>
  <rect x="34" y="313" width="130" height="7" rx="3" fill="#e2e8f0"/>
  <rect x="215" y="258" width="170" height="90" rx="10" fill="white" stroke="#e2e8f0" stroke-width="1"/>
  <text x="300" y="285" font-family="Roboto,sans-serif" font-size="20" text-anchor="middle">🔬</text>
  <rect x="229" y="298" width="100" height="9" rx="4" fill="#1e293b"/>
  <rect x="229" y="313" width="130" height="7" rx="3" fill="#e2e8f0"/>
  <rect x="410" y="258" width="170" height="90" rx="10" fill="white" stroke="#e2e8f0" stroke-width="1"/>
  <text x="495" y="285" font-family="Roboto,sans-serif" font-size="20" text-anchor="middle">✨</text>
  <rect x="424" y="298" width="100" height="9" rx="4" fill="#1e293b"/>
  <rect x="424" y="313" width="130" height="7" rx="3" fill="#e2e8f0"/>
  <!-- Label -->
  <rect x="0" y="355" width="600" height="25" fill="#0f172a"/>
  <text x="300" y="371" font-family="Roboto,sans-serif" font-size="10" fill="rgba(255,255,255,0.5)" text-anchor="middle">Diseño Web Lite · Clínica Dental · Uctured</text>
  <defs>
    <linearGradient id="p1h" x1="0" y1="0" x2="600" y2="140" gradientUnits="userSpaceOnUse">
      <stop stop-color="#4f46e5"/><stop offset="1" stop-color="#4338ca"/>
    </linearGradient>
  </defs>
</svg>
